<svg width="74" height="75" viewBox="0 0 74 75" fill="none" xmlns="http://www.w3.org/2000/svg">
<g filter="url(#filter0_i_127_4)">
<ellipse cx="37.3489" cy="37.3953" rx="35.5" ry="36" fill="#D9D9D9" fill-opacity="0.87"/>
</g>
<path d="M37.3489 73.8953C57.2378 73.8953 73.3489 57.547 73.3489 37.3953C73.3489 17.2435 57.2378 0.895264 37.3489 0.895264C17.4601 0.895264 1.34894 17.2435 1.34894 37.3953C1.34894 57.547 17.4601 73.8953 37.3489 73.8953Z" stroke="black"/>
<path d="M19.4984 17.6826L19.5 17.6628V17.6429C19.5 15.7537 19.992 13.6867 20.9546 12.1086C21.9124 10.5385 23.2993 9.5 25.1111 9.5C27.5003 9.5 29.506 11.1854 30.9443 13.6245C32.3761 16.0526 33.1667 19.1078 33.1667 21.5714C33.1667 23.4606 32.6747 25.5276 31.712 27.1057C30.7542 28.6758 29.3674 29.7143 27.5556 29.7143C24.9487 29.7143 22.8447 28.0113 21.4168 25.5898C19.9897 23.1697 19.3033 20.1288 19.4984 17.6826ZM51.0926 18.0357C51.0926 20.2974 50.305 23.2535 48.8725 25.6351C47.4337 28.0271 45.4278 29.7143 43.037 29.7143C41.2252 29.7143 39.8384 28.6758 38.8806 27.1057C37.9179 25.5276 37.4259 23.4606 37.4259 21.5714C37.4259 19.3098 38.2135 16.3536 39.6461 13.972C41.0848 11.58 43.0908 9.89286 45.4815 9.89286C47.2933 9.89286 48.6802 10.9313 49.638 12.5015C50.6006 14.0795 51.0926 16.1466 51.0926 18.0357ZM49.2407 38.4643C49.2407 36.0145 50.1254 33.0643 51.6542 30.7341C53.1876 28.3969 55.2949 26.7857 57.7037 26.7857C59.1305 26.7857 60.3151 27.5537 61.1628 28.7799C62.0146 30.0119 62.5 31.6776 62.5 33.3571C62.5 35.807 61.6154 38.7571 60.0866 41.0873C58.5531 43.4246 56.4458 45.0357 54.037 45.0357C52.3935 45.0357 51.218 44.2555 50.4325 43.0525C49.6344 41.8301 49.2407 40.1655 49.2407 38.4643ZM13.2963 26.7857C15.4952 26.7857 17.6045 28.3886 19.1971 30.7402C20.7799 33.0773 21.7593 36.026 21.7593 38.4643C21.7593 40.1655 21.3656 41.8301 20.5675 43.0525C19.782 44.2555 18.6065 45.0357 16.963 45.0357C14.7641 45.0357 12.6548 43.4329 11.0621 41.0812C9.47933 38.7441 8.5 35.7955 8.5 33.3571C8.5 31.6559 8.89364 29.9913 9.6918 28.7689C10.4773 27.5659 11.6528 26.7857 13.2963 26.7857ZM16.6481 58.8929C16.6481 54.7488 19.3073 49.5603 23.0397 45.3775C24.897 43.2962 26.9983 41.4894 29.1252 40.206C31.2571 38.9197 33.3822 38.1786 35.2963 38.1786C37.2104 38.1786 39.3355 38.9197 41.4674 40.206C43.5943 41.4894 45.6956 43.2962 47.5529 45.3775C51.2853 49.5603 53.9444 54.7488 53.9444 58.8929C53.9444 59.9011 53.7312 60.6708 53.3879 61.2633C53.0451 61.8552 52.5562 62.2987 51.9606 62.63C50.7514 63.3027 49.1263 63.5 47.5185 63.5C45.3867 63.5 43.4347 62.7533 41.4386 61.9636C41.3793 61.9402 41.32 61.9167 41.2607 61.8932C39.3527 61.1376 37.382 60.3571 35.2963 60.3571C33.0118 60.3571 30.9392 61.1378 28.9224 61.8974C28.8663 61.9185 28.8104 61.9396 28.7545 61.9606C26.6596 62.7489 24.6008 63.5 22.2593 63.5C20.6753 63.5 19.2678 63.211 18.2686 62.5103C17.3007 61.8315 16.6481 60.7189 16.6481 58.8929Z" fill="#F26A8D" stroke="black"/>
<defs>
<filter id="filter0_i_127_4" x="0.848938" y="0.395264" width="73" height="78" filterUnits="userSpaceOnUse" color-interpolation-filters="sRGB">
<feFlood flood-opacity="0" result="BackgroundImageFix"/>
<feBlend mode="normal" in="SourceGraphic" in2="BackgroundImageFix" result="shape"/>
<feColorMatrix in="SourceAlpha" type="matrix" values="0 0 0 0 0 0 0 0 0 0 0 0 0 0 0 0 0 0 127 0" result="hardAlpha"/>
<feOffset dy="4"/>
<feGaussianBlur stdDeviation="2"/>
<feComposite in2="hardAlpha" operator="arithmetic" k2="-1" k3="1"/>
<feColorMatrix type="matrix" values="0 0 0 0 0 0 0 0 0 0 0 0 0 0 0 0 0 0 0.25 0"/>
<feBlend mode="normal" in2="shape" result="effect1_innerShadow_127_4"/>
</filter>
</defs>
</svg>
