<svg width="312" height="319" viewBox="0 0 312 319" fill="none" xmlns="http://www.w3.org/2000/svg">
<path d="M311.5 159.5C311.5 247.324 241.87 318.5 156 318.5C70.1301 318.5 0.5 247.324 0.5 159.5C0.5 71.6762 70.1301 0.5 156 0.5C241.87 0.5 311.5 71.6762 311.5 159.5Z" fill="url(#paint0_linear_76_395)" stroke="black"/>
<path d="M164.914 264.893L164.914 264.893C174.543 258.497 187.346 249.22 200.105 237.684C226.111 214.174 249.81 183.224 249.81 149.604C249.81 121.159 227.877 100.933 206.853 100.933C185.524 100.933 168.289 115.86 160.62 140.266L160.619 140.269C160.071 141.98 159.03 143.472 157.638 144.531C156.244 145.59 154.57 146.162 152.849 146.162C151.128 146.162 149.454 145.59 148.061 144.531C146.668 143.472 145.627 141.98 145.079 140.269L145.078 140.266C137.409 115.86 120.164 100.933 98.8457 100.933C77.8212 100.933 55.8885 121.159 55.8885 149.604C55.8885 183.224 79.5867 214.174 105.593 237.684C120.128 250.723 135.785 262.283 152.356 272.211L164.914 264.893ZM164.914 264.893C160.111 268.089 156.118 270.557 153.344 272.22C153.343 272.221 153.342 272.221 153.341 272.222L152.852 272.506L152.357 272.211L164.914 264.893ZM152.849 291.051C153.99 291.051 155.115 290.799 156.153 290.313L156.155 290.317L156.248 290.268C156.37 290.209 156.49 290.147 156.608 290.082L156.676 290.045L156.678 290.045L156.695 290.037L156.712 290.027L156.969 289.886L156.977 289.881C156.983 289.878 156.988 289.874 156.994 289.871L157.025 289.854L157.025 289.853C176.133 278.829 194.134 265.766 210.746 250.867L210.748 250.866C237.319 226.86 266.198 191.418 266.198 149.604C266.198 111.645 236.969 83.5935 206.853 83.5935C183.401 83.5935 164.452 96.7425 152.849 116.904C141.256 96.7423 122.297 83.5935 98.8457 83.5935C68.7187 83.5935 39.5 111.656 39.5 149.593V149.604C39.5 191.418 68.3688 226.849 94.9506 250.866L94.952 250.867C111.578 265.779 129.595 278.852 148.721 289.881L148.73 289.886L148.986 290.027L149.003 290.037L149.021 290.045L149.049 290.058L149.065 290.069L149.09 290.082C150.251 290.718 151.54 291.051 152.849 291.051Z" fill="#9D4EDD" stroke="black"/>
<path d="M80.0583 272.639L118.694 226.919" stroke="black" stroke-width="3" stroke-linecap="square"/>
<path d="M208.266 133.644L247.807 83.58" stroke="black" stroke-width="3" stroke-linecap="square"/>
<path d="M100.417 214.054C120.214 219.737 128.679 235.108 130.437 242.083" stroke="black" stroke-width="3"/>
<path d="M221.365 145.515C202.224 137.826 195.306 121.662 194.24 114.542" stroke="black" stroke-width="3"/>
<line y1="-1.5" x2="17.9763" y2="-1.5" transform="matrix(0.979411 -0.201878 0.188855 0.982005 62.1668 275.744)" stroke="black" stroke-width="3"/>
<line y1="-1.5" x2="18.5773" y2="-1.5" transform="matrix(-0.107274 0.99423 -0.99338 -0.114877 80.0429 272.081)" stroke="black" stroke-width="3"/>
<path d="M268.508 70.9393C270.945 72.9993 274.043 73.0296 276.659 72.2647C279.272 71.5009 281.718 69.8676 283.157 68.0812C284.348 66.602 285.246 64.6024 285.407 62.5462C285.572 60.4448 284.957 58.2188 283.035 56.5943C280.597 54.5342 277.5 54.504 274.883 55.2689C272.27 56.0327 269.824 57.666 268.386 59.4524C267.195 60.9316 266.296 62.9312 266.135 64.9874C265.971 67.0888 266.585 69.3148 268.508 70.9393ZM257.284 61.4542C259.206 63.0787 261.456 63.2734 263.438 62.7083C265.378 62.1554 267.123 60.8711 268.314 59.3919C269.843 57.4926 271.001 54.6671 271.265 51.8519C271.53 49.036 270.912 45.9215 268.472 43.8591C266.549 42.2346 264.3 42.0399 262.317 42.605C260.4 43.1513 258.674 44.4117 257.484 45.8687C255.768 47.6705 254.533 50.4549 254.268 53.2741C253.999 56.1459 254.727 59.2937 257.284 61.4542ZM283.074 75.0401C280.674 73.0123 277.592 72.8154 274.91 73.4784C272.234 74.1399 269.688 75.7122 268.129 77.6486C267.434 78.5115 266.856 79.5287 266.512 80.6262C265.773 75.9357 263.927 71.278 260.879 68.7017C257.99 66.2605 253.516 65.2613 249.111 65.29C249.918 64.7647 250.631 64.0941 251.222 63.3605C252.805 61.3942 253.735 58.451 253.818 55.6302C253.901 52.8235 253.146 49.7486 250.879 47.8329C249.18 46.3976 247.276 46.0546 245.51 46.4955C243.807 46.9208 242.331 48.0441 241.26 49.375C239.677 51.3413 238.746 54.2845 238.663 57.1053C238.581 59.912 239.336 62.9869 241.603 64.9026C242.132 65.3502 242.682 65.6915 243.241 65.936C241.899 66.2283 240.603 66.6182 239.402 67.1029C237.176 68.0005 235.174 69.2634 233.831 70.931C232.492 72.5949 232.226 74.4077 232.802 76.1222C233.334 77.7075 234.533 79.0538 235.8 80.1244C237.78 81.7976 239.954 82.6734 241.864 83.4371L241.884 83.4451C243.843 84.2289 245.489 84.8873 246.893 86.0733C248.139 87.1269 249.006 88.58 250.066 90.3578L250.068 90.361C251.085 92.0662 252.268 94.0414 254.112 95.6001C255.334 96.6324 256.908 97.7536 258.594 98.1717C259.464 98.3874 260.41 98.4277 261.358 98.132C262.314 97.8338 263.165 97.2277 263.887 96.3305C265.23 94.6629 266.059 92.4087 266.496 89.9995C266.745 88.6246 266.873 87.1644 266.887 85.6754C267.26 86.3735 267.786 87.03 268.481 87.617C270.88 89.6448 273.963 89.8416 276.645 89.1786C279.32 88.5172 281.866 86.9449 283.425 85.0085C285.57 82.3445 286.309 77.7739 283.074 75.0401Z" fill="#713800" stroke="black" stroke-width="3"/>
<defs>
<linearGradient id="paint0_linear_76_395" x1="156" y1="0" x2="156" y2="319" gradientUnits="userSpaceOnUse">
<stop stop-color="#8AC926"/>
<stop offset="0.9999" stop-color="#8AC926" stop-opacity="0.39"/>
<stop offset="1" stop-color="#8AC926" stop-opacity="0"/>
</linearGradient>
</defs>
</svg>
