<svg width="77" height="76" viewBox="0 0 77 76" fill="none" xmlns="http://www.w3.org/2000/svg">
<g filter="url(#filter0_i_127_3)">
<ellipse cx="38.5" cy="38" rx="37.5" ry="37" fill="#D9D9D9" fill-opacity="0.81"/>
</g>
<path d="M38.5 75.5C59.4805 75.5 76.5 58.717 76.5 38C76.5 17.283 59.4805 0.5 38.5 0.5C17.5195 0.5 0.5 17.283 0.5 38C0.5 58.717 17.5195 75.5 38.5 75.5Z" stroke="black"/>
<path d="M44.4506 18.0421L44.4507 18.0419C45.2002 16.6863 46.357 15.5389 47.7977 14.734C49.2386 13.9289 50.9033 13.5004 52.6046 13.5C52.6046 13.5 52.6047 13.5 52.6047 13.5H55.8507C56.0273 13.5 56.1876 13.5638 56.2985 13.6639C56.4076 13.7626 56.4579 13.8848 56.4579 14V22.88V23.2517L56.8138 23.3588L68.8046 26.9662C68.8048 26.9663 68.8051 26.9664 68.8054 26.9665C68.9334 27.0057 69.0361 27.0776 69.1042 27.1635C69.1719 27.2487 69.2034 27.3439 69.2033 27.4357V27.436V31.2757C69.2022 33.4255 68.2567 35.4986 66.5548 37.0358C64.8512 38.5745 62.5311 39.4469 60.1022 39.448C60.1021 39.448 60.102 39.448 60.1019 39.448H52.7132C48.3469 38.5911 45.1023 36.3612 42.7434 33.7273C41.1731 31.9578 39.9147 29.9833 39.0104 27.8735L44.4506 18.0421ZM32.4467 28.856C33.6154 32.0078 35.3915 34.9464 37.6917 37.5361L37.6937 37.5382C40.9515 41.1635 45.699 44.4139 52.2109 45.4652V54.304V54.3135L52.2112 54.323C52.2429 55.1551 52.089 55.9856 51.7571 56.7657C51.4251 57.546 50.921 58.2616 50.272 58.8684C49.6228 59.4752 48.8423 59.9604 47.9755 60.2926C47.1088 60.6248 46.1753 60.7965 45.231 60.7965C44.2868 60.7965 43.3532 60.6248 42.4865 60.2926C41.6197 59.9604 40.8392 59.4752 40.19 58.8684C39.541 58.2616 39.0369 57.546 38.7049 56.7657C38.373 55.9856 38.2191 55.1551 38.2508 54.323L38.2512 54.3135V54.304V52.384C38.2512 51.9379 38.1538 51.4976 37.9663 51.0888C37.7789 50.6801 37.5058 50.3123 37.1654 50.0048C36.825 49.6974 36.4237 49.4559 35.9853 49.2919C35.547 49.1279 35.0788 49.044 34.6069 49.044H26.1084C25.1583 49.044 24.238 49.3841 23.5518 50.0031C22.8638 50.6236 22.4656 51.4769 22.4641 52.3792V52.38V54.3V54.3095L22.4645 54.319C22.4962 55.1511 22.3423 55.9816 22.0104 56.7617C21.6784 57.542 21.1743 58.2576 20.5253 58.8644C19.8761 59.4712 19.0956 59.9564 18.2288 60.2886C17.3621 60.6208 16.4285 60.7925 15.4843 60.7925C14.54 60.7925 13.6065 60.6208 12.7398 60.2886C11.873 59.9564 11.0925 59.4712 10.4433 58.8644L10.1063 59.2249L10.4433 58.8644C9.79427 58.2576 9.29021 57.542 8.9582 56.7617C8.62629 55.9816 8.47236 55.1511 8.50407 54.319L8.50443 54.3095V54.3L8.50443 21.68L8.50443 21.6786C8.50419 21.5957 8.52963 21.5102 8.58406 21.4317C8.63895 21.3525 8.72239 21.2822 8.83009 21.2352L8.63024 20.7769L8.83009 21.2352C8.93795 21.1882 9.06135 21.1686 9.18481 21.1811C9.30823 21.1937 9.42069 21.2372 9.50991 21.3015C9.50992 21.3015 9.50993 21.3015 9.50994 21.3015L15.4747 25.6132C15.4748 25.6132 15.4748 25.6132 15.4748 25.6132C18.3811 27.7147 21.9862 28.8557 25.6965 28.856H25.6966H32.4467Z" fill="#713800" stroke="black"/>
<defs>
<filter id="filter0_i_127_3" x="0" y="0" width="77" height="80" filterUnits="userSpaceOnUse" color-interpolation-filters="sRGB">
<feFlood flood-opacity="0" result="BackgroundImageFix"/>
<feBlend mode="normal" in="SourceGraphic" in2="BackgroundImageFix" result="shape"/>
<feColorMatrix in="SourceAlpha" type="matrix" values="0 0 0 0 0 0 0 0 0 0 0 0 0 0 0 0 0 0 127 0" result="hardAlpha"/>
<feOffset dy="4"/>
<feGaussianBlur stdDeviation="2"/>
<feComposite in2="hardAlpha" operator="arithmetic" k2="-1" k3="1"/>
<feColorMatrix type="matrix" values="0 0 0 0 0 0 0 0 0 0 0 0 0 0 0 0 0 0 0.25 0"/>
<feBlend mode="normal" in2="shape" result="effect1_innerShadow_127_3"/>
</filter>
</defs>
</svg>
